<svg width="24" height="25" viewBox="0 0 24 25" fill="none" xmlns="http://www.w3.org/2000/svg">
<path d="M12.0398 2.7813C6.5798 2.7813 2.1298 7.2313 2.1298 12.6913C2.1298 14.4413 2.5898 16.1413 3.4498 17.6413L2.0498 22.7813L7.2998 21.4013C8.7498 22.1913 10.3798 22.6113 12.0398 22.6113C17.4998 22.6113 21.9498 18.1613 21.9498 12.7013C21.9498 10.0513 20.9198 7.5613 19.0498 5.6913C18.1329 4.76541 17.0408 4.03127 15.8373 3.53167C14.6338 3.03206 13.3429 2.77699 12.0398 2.7813ZM12.0498 4.4513C14.2498 4.4513 16.3098 5.3113 17.8698 6.8713C18.6352 7.63682 19.242 8.54582 19.6556 9.54622C20.0691 10.5466 20.2813 11.6188 20.2798 12.7013C20.2798 17.2413 16.5798 20.9313 12.0398 20.9313C10.5598 20.9313 9.10981 20.5413 7.8498 19.7813L7.5498 19.6113L4.4298 20.4313L5.2598 17.3913L5.0598 17.0713C4.23435 15.7597 3.79747 14.241 3.7998 12.6913C3.8098 8.1513 7.4998 4.4513 12.0498 4.4513ZM8.5298 8.1113C8.3698 8.1113 8.0998 8.1713 7.8698 8.4213C7.6498 8.6713 6.9998 9.2813 6.9998 10.4913C6.9998 11.7113 7.8898 12.8813 7.9998 13.0513C8.1398 13.2213 9.7598 15.7213 12.2498 16.7813C12.8398 17.0513 13.2998 17.2013 13.6598 17.3113C14.2498 17.5013 14.7898 17.4713 15.2198 17.4113C15.6998 17.3413 16.6798 16.8113 16.8898 16.2313C17.0998 15.6513 17.0998 15.1613 17.0398 15.0513C16.9698 14.9513 16.8098 14.8913 16.5598 14.7813C16.3098 14.6413 15.0898 14.0413 14.8698 13.9613C14.6398 13.8813 14.4998 13.8413 14.3098 14.0813C14.1498 14.3313 13.6698 14.8913 13.5298 15.0513C13.3798 15.2213 13.2398 15.2413 12.9998 15.1213C12.7398 14.9913 11.9398 14.7313 10.9998 13.8913C10.2598 13.2313 9.7698 12.4213 9.6198 12.1713C9.4998 11.9313 9.6098 11.7813 9.7298 11.6713C9.8398 11.5613 9.9998 11.3813 10.0998 11.2313C10.2298 11.0913 10.2698 10.9813 10.3498 10.8213C10.4298 10.6513 10.3898 10.5113 10.3298 10.3913C10.2698 10.2813 9.7698 9.0413 9.5598 8.5513C9.35981 8.0713 9.1598 8.1313 8.9998 8.1213C8.8598 8.1213 8.6998 8.1113 8.5298 8.1113Z" fill="white"/>
</svg>
