<svg width="24" height="25" viewBox="0 0 24 25" fill="none" xmlns="http://www.w3.org/2000/svg">
<path d="M10.478 21.9043C11.4834 22.0714 12.5094 22.0721 13.515 21.9063M10.478 21.9043C8.31845 21.5439 6.35578 20.429 4.94091 18.7582C3.52604 17.0873 2.74971 14.9688 2.75 12.7793C2.75036 11.0147 3.25548 9.28699 4.20575 7.80007C5.15602 6.31315 6.51179 5.12907 8.11307 4.38755C9.71435 3.64604 11.4943 3.37803 13.243 3.61515C14.9916 3.85227 16.6359 4.58463 17.9819 5.7258C19.3279 6.86698 20.3193 8.36935 20.8393 10.0556C21.3593 11.7419 21.3861 13.5418 20.9165 15.2428C20.4469 16.9438 19.5005 18.475 18.1891 19.6557C16.8776 20.8364 15.2558 21.6173 13.515 21.9063M10.478 21.9043L10.477 16.8993H8.58C8.42087 16.8993 8.26826 16.8361 8.15574 16.7236C8.04321 16.6111 7.98 16.4585 7.98 16.2993V14.4613C7.98 14.3022 8.04321 14.1496 8.15574 14.0371C8.26826 13.9246 8.42087 13.8613 8.58 13.8613H10.477V10.7293C10.477 9.9337 10.7931 9.17063 11.3557 8.60803C11.9183 8.04542 12.6814 7.72935 13.477 7.72935H15.287C15.5522 7.72935 15.8066 7.8347 15.9941 8.02224C16.1816 8.20978 16.287 8.46413 16.287 8.72935V9.76935C16.287 10.0346 16.1816 10.2889 15.9941 10.4765C15.8066 10.664 15.5522 10.7693 15.287 10.7693H14.515C14.2498 10.7693 13.9954 10.8747 13.8079 11.0622C13.6204 11.2498 13.515 11.5041 13.515 11.7693V13.8613H15.812C15.8991 13.8613 15.9851 13.8803 16.0642 13.9169C16.1432 13.9535 16.2133 14.0068 16.2696 14.0733C16.326 14.1397 16.3672 14.2176 16.3904 14.3015C16.4136 14.3854 16.4182 14.4734 16.404 14.5593L16.154 16.0633C16.1152 16.2968 15.9948 16.509 15.8142 16.6621C15.6337 16.8152 15.4047 16.8992 15.168 16.8993H13.515V21.9063" stroke="white" stroke-width="1.5" stroke-linecap="round"/>
</svg>
