<svg width="24" height="25" viewBox="0 0 24 25" fill="none" xmlns="http://www.w3.org/2000/svg">
<path d="M12.001 9.78125C11.2054 9.78125 10.4423 10.0973 9.87968 10.6599C9.31707 11.2225 9.001 11.9856 9.001 12.7812C9.001 13.5769 9.31707 14.34 9.87968 14.9026C10.4423 15.4652 11.2054 15.7812 12.001 15.7812C12.7966 15.7812 13.5597 15.4652 14.1223 14.9026C14.6849 14.34 15.001 13.5769 15.001 12.7812C15.001 11.9856 14.6849 11.2225 14.1223 10.6599C13.5597 10.0973 12.7966 9.78125 12.001 9.78125ZM12.001 7.78125C13.3271 7.78125 14.5989 8.30803 15.5365 9.24572C16.4742 10.1834 17.001 11.4552 17.001 12.7812C17.001 14.1073 16.4742 15.3791 15.5365 16.3168C14.5989 17.2545 13.3271 17.7812 12.001 17.7812C10.6749 17.7812 9.40315 17.2545 8.46547 16.3168C7.52778 15.3791 7.001 14.1073 7.001 12.7812C7.001 11.4552 7.52778 10.1834 8.46547 9.24572C9.40315 8.30803 10.6749 7.78125 12.001 7.78125ZM18.501 7.53125C18.501 7.86277 18.3693 8.18071 18.1349 8.41513C17.9005 8.64955 17.5825 8.78125 17.251 8.78125C16.9195 8.78125 16.6015 8.64955 16.3671 8.41513C16.1327 8.18071 16.001 7.86277 16.001 7.53125C16.001 7.19973 16.1327 6.88179 16.3671 6.64737C16.6015 6.41295 16.9195 6.28125 17.251 6.28125C17.5825 6.28125 17.9005 6.41295 18.1349 6.64737C18.3693 6.88179 18.501 7.19973 18.501 7.53125ZM12.001 4.78125C9.527 4.78125 9.123 4.78825 7.972 4.83925C7.188 4.87625 6.662 4.98125 6.174 5.17125C5.76583 5.32162 5.39672 5.56188 5.094 5.87425C4.78127 6.17687 4.54066 6.54599 4.39 6.95425C4.2 7.44425 4.095 7.96925 4.059 8.75225C4.007 9.85625 4 10.2422 4 12.7812C4 15.2563 4.007 15.6592 4.058 16.8102C4.095 17.5932 4.2 18.1203 4.389 18.6073C4.559 19.0422 4.759 19.3552 5.091 19.6873C5.428 20.0233 5.741 20.2242 6.171 20.3902C6.665 20.5812 7.191 20.6873 7.971 20.7232C9.075 20.7752 9.461 20.7812 12 20.7812C14.475 20.7812 14.878 20.7743 16.029 20.7232C16.811 20.6862 17.337 20.5812 17.826 20.3923C18.2342 20.2419 18.6033 20.0016 18.906 19.6893C19.243 19.3533 19.444 19.0402 19.61 18.6092C19.8 18.1172 19.906 17.5912 19.942 16.8092C19.994 15.7063 20 15.3193 20 12.7812C20 10.3073 19.993 9.90325 19.942 8.75225C19.905 7.97025 19.799 7.44225 19.61 6.95425C19.4596 6.54608 19.2194 6.17697 18.907 5.87425C18.6044 5.56152 18.2353 5.32091 17.827 5.17025C17.337 4.98025 16.811 4.87525 16.029 4.83925C14.926 4.78725 14.54 4.78125 12 4.78125M12 2.78125C14.717 2.78125 15.056 2.79125 16.123 2.84125C17.187 2.89125 17.913 3.05825 18.55 3.30625C19.21 3.56025 19.766 3.90425 20.322 4.45925C20.8307 4.95898 21.2242 5.56372 21.475 6.23125C21.722 6.86825 21.89 7.59425 21.94 8.65925C21.987 9.72525 22 10.0642 22 12.7812C22 15.4983 21.99 15.8372 21.94 16.9032C21.89 17.9692 21.722 18.6932 21.475 19.3312C21.2242 19.9988 20.8307 20.6035 20.322 21.1033C19.8223 21.6119 19.2175 22.0054 18.55 22.2563C17.913 22.5033 17.187 22.6713 16.123 22.7213C15.056 22.7683 14.717 22.7812 12 22.7812C9.283 22.7812 8.944 22.7712 7.877 22.7213C6.813 22.6713 6.088 22.5033 5.45 22.2563C4.78247 22.0054 4.17773 21.6119 3.678 21.1033C3.16931 20.6035 2.77582 19.9988 2.525 19.3312C2.277 18.6942 2.11 17.9683 2.06 16.9032C2.012 15.8372 2 15.4983 2 12.7812C2 10.0642 2.01 9.72525 2.06 8.65925C2.11 7.59325 2.277 6.86925 2.525 6.23125C2.77582 5.56372 3.16931 4.95898 3.678 4.45925C4.17773 3.95056 4.78247 3.55707 5.45 3.30625C6.087 3.05825 6.812 2.89125 7.877 2.84125C8.945 2.79425 9.284 2.78125 12.001 2.78125" fill="white"/>
</svg>
